<svg width="405.447" height="406.924" viewBox="0 0 107.274 107.665" xml:space="preserve" xmlns:xlink="http://www.w3.org/1999/xlink" xmlns="http://www.w3.org/2000/svg">
    <defs>
        <linearGradient id="a">
            <stop style="stop-color:#f60;stop-opacity:1" offset="0"/>
            <stop style="stop-color:red;stop-opacity:1" offset="1"/>
        </linearGradient>
        <linearGradient xlink:href="#a" id="b" x1="42.774" y1="53.122" x2="145.568" y2="158.331" gradientUnits="userSpaceOnUse" gradientTransform="translate(3.105 11.728)"/>
    </defs>
    <path style="fill:url(#b);fill-opacity:1" d="M50.53 171.045c-3.113-.46-5.736-2.814-6.725-6.037-.22-.72-.23-2.454-.23-47.726 0-45.203.01-47.007.229-47.718.89-2.885 2.97-5.057 5.627-5.877.713-.22 2.48-.229 47.782-.229 45.247 0 47.072.01 47.85.229 2.398.676 4.622 2.83 5.462 5.289l.325.954v94.705l-.33.904c-.94 2.573-2.759 4.377-5.27 5.23l-.996.337-46.543.016c-25.6.01-46.83-.026-47.18-.077zm73.798-16.669c4.677-.941 9.048-3.41 12.033-6.797 2.32-2.631 3.959-5.92 4.742-9.514.252-1.153.285-1.643.282-4.169-.002-2.504-.038-3.026-.285-4.169-.416-1.92-.92-3.347-1.825-5.165a21.454 21.454 0 0 0-14.746-11.403c-1.778-.38-5.644-.41-7.529-.061-5.766 1.068-10.777 4.355-14.008 9.19-5.08 7.6-4.91 16.943.44 24.177 1.93 2.611 4.56 4.738 7.693 6.22 2.057.974 3.973 1.542 6.498 1.926 1.348.206 5.185.071 6.705-.235zm-16.724-6.844c-1.347-.162-2.364-.741-2.364-1.346 0-.1.396-.591.88-1.09.774-.798.917-1.022 1.175-1.834.162-.51.387-1.397.5-1.973.487-2.472 1.06-3.733 2.232-4.913 2.27-2.286 5.613-2.334 8.009-.116 2.354 2.18 2.33 5.5-.06 8.14-1.245 1.377-3.334 2.502-5.443 2.933-1.148.234-3.766.34-4.929.2zm13.025-11.303c-.708-1.061-2.026-2.39-3-3.02-1.328-.86-1.227-.709-.993-1.49.852-2.841 3.534-5.98 8.018-9.388 3.478-2.642 4.7-3.338 5.99-3.41.801-.046.845-.033 1.302.385.436.4.476.495.522 1.227.084 1.327-.447 2.93-2.016 6.083-2.41 4.847-5.536 8.645-8.337 10.13-.335.178-.68.323-.768.323-.087 0-.41-.378-.718-.84zm-45.994 11.802.364-.364v-20.43c0-13.077.043-20.414.12-20.388.107.037 9.555 13.39 17.533 24.778l2.943 4.202.088-.966c.36-3.977.656-5.703 1.399-8.153.534-1.764 1.518-4.09 2.368-5.599l.642-1.14-.891-1.25c-.49-.689-2.757-3.912-5.038-7.163a8759.185 8759.185 0 0 0-8.27-11.76c-2.267-3.218-5.762-8.184-7.767-11.036-2.006-2.852-3.849-5.422-4.095-5.71-.855-.999-.742-.983-6.913-.986l-5.454-.003-.364.364-.364.364v64.875l.364.364.364.364H74.27zm31.482-34.004c2.978-2.117 6.546-3.602 10.852-4.517l.342-.073V82.824l-.3-.35-.3-.348h-12.585l-.345.345-.346.345-.032 16.679-.032 16.678.965-.783a43.087 43.087 0 0 1 1.781-1.363z" transform="translate(-43.576 -63.458)"/>
</svg>
